<svg width="512" height="512" viewBox="0 0 512 512" fill="none" xmlns="http://www.w3.org/2000/svg">
    <g transform="translate(156, 86)">
        <path d="M50 0H150C177.614 0 200 22.3858 200 50V130C200 157.614 177.614 180 150 180H50C22.3858 180 0 157.614 0 130V50C0 22.3858 22.3858 0 50 0Z" fill="white"/>
        
        <rect x="30" y="40" width="140" height="15" rx="7.5" fill="#512BD4"/>
        <rect x="30" y="70" width="140" height="15" rx="7.5" fill="#512BD4"/>
        <rect x="30" y="100" width="140" height="15" rx="7.5" fill="#512BD4"/>
        <rect x="30" y="130" width="140" height="15" rx="7.5" fill="#512BD4"/>

        <path d="M20 150C20 194.183 55.8172 230 100 230C144.183 230 180 194.183 180 150" stroke="white" stroke-width="25" stroke-linecap="round"/>
        <path d="M100 230V320" stroke="white" stroke-width="25" stroke-linecap="round"/>
        <path d="M40 320H160" stroke="white" stroke-width="25" stroke-linecap="round"/>
    </g>
</svg>